<svg width="512" height="512" version="1.1" xmlns="http://www.w3.org/2000/svg"><path fill="rgb(0,0,0)" stroke="rgb(0,0,0)" stroke-width="1" opacity="0" d="M 0 0 L 512 0 L 512 382.5 L 511 382.5 L 507 371.5 L 492 349.5 Q 461 311 425 277.5 Q 419.8 273.2 420 263.5 L 428 249.5 L 461 202.5 L 486 161.5 L 499 134.5 L 502 124.5 L 502 115.5 L 497.5 109 L 488.5 106 L 422.5 106 Q 411.2 107.7 406 115.5 Q 390.1 152.6 370 185.5 Q 352.9 214.4 330.5 238 L 318.5 248 L 311.5 251 L 306.5 251 Q 301.5 248 300 241.5 L 300 121.5 L 298 113.5 L 294.5 109 L 287.5 106 L 192.5 106 L 183 111.5 Q 179.7 115.2 181 123.5 L 196 144.5 L 202 161.5 Q 200.5 167 203 168.5 L 203 262.5 L 201 270.5 L 197.5 274 Q 189.2 275.3 185.5 272 L 169 256.5 Q 148.6 231.4 133 201.5 L 112 157.5 L 100 124.5 L 95 114.5 L 90.5 110 L 79.5 106 L 14.5 106 L 5.5 109 L 1 113.5 L 0.5 115 L 0 0 Z "></path><path fill="rgb(0,0,0)" stroke="rgb(0,0,0)" stroke-width="1" opacity="0" d="M 0.5 131 L 6 153.5 L 19 187.5 L 48 244.5 Q 70.2 282.3 96 316.5 L 130.5 353 Q 159.6 379.4 199.5 395 L 232.5 404 L 249.5 405 L 250.5 406 L 269.5 406 L 270.5 405 L 279.5 405 L 290.5 402 L 298 395.5 L 300 388.5 L 300 326.5 L 302 320.5 L 304.5 318 Q 308.5 315 316.5 316 L 332.5 322 L 349.5 334 L 388 370.5 L 412.5 397 Q 419.5 403.5 430.5 406 L 496.5 406 L 509 401 L 511.5 396 L 512 512 L 0 512 L 0.5 131 Z "></path><path fill="rgb(192,103,0)" stroke="rgb(192,103,0)" stroke-width="1" opacity="0.4666666666666667" d="M 14.5 106 L 80 106.5 L 14.5 107 L 14.5 106 Z "></path><path fill="rgb(192,103,0)" stroke="rgb(192,103,0)" stroke-width="1" opacity="0.4666666666666667" d="M 192.5 106 L 288 106.5 L 192.5 107 L 192.5 106 Z "></path><path fill="rgb(192,103,0)" stroke="rgb(192,103,0)" stroke-width="1" opacity="0.4666666666666667" d="M 422.5 106 L 489 106.5 L 422.5 107 L 422.5 106 Z "></path><path fill="rgb(192,103,0)" stroke="rgb(192,103,0)" stroke-width="1" opacity="0.4666666666666667" d="M 9.5 107 L 12 107.5 L 7.5 109 L 7.5 108 L 9.5 107 Z "></path><path fill="rgb(192,103,0)" stroke="rgb(192,103,0)" stroke-width="1" opacity="0.4666666666666667" d="M 82.5 107 L 85 107.5 L 82.5 108 L 82.5 107 Z "></path><path fill="rgb(192,103,0)" stroke="rgb(192,103,0)" stroke-width="1" opacity="0.4666666666666667" d="M 289.5 107 L 296 110.5 L 298 114.5 L 297 114.5 L 295 110 L 289.5 108 L 289.5 107 Z "></path><path fill="rgb(192,103,0)" stroke="rgb(192,103,0)" stroke-width="1" opacity="0.4666666666666667" d="M 418.5 107 L 421 107.5 L 418.5 108 L 418.5 107 Z "></path><path fill="rgb(192,103,0)" stroke="rgb(192,103,0)" stroke-width="1" opacity="0.4666666666666667" d="M 490.5 107 L 493 107.5 L 490.5 108 L 490.5 107 Z "></path><path fill="rgb(192,103,0)" stroke="rgb(192,103,0)" stroke-width="1" opacity="0.4666666666666667" d="M 86.5 108 L 95 114.5 L 96 116.5 L 94 115.5 L 90.5 111 Q 85.8 110.2 86.5 108 Z "></path><path fill="rgb(192,103,0)" stroke="rgb(192,103,0)" stroke-width="1" opacity="0.4666666666666667" d="M 187.5 108 L 186.5 110 L 184 111.5 L 181.5 118 L 181 115.5 L 185.5 109 L 187.5 108 Z "></path><path fill="rgb(192,103,0)" stroke="rgb(192,103,0)" stroke-width="1" opacity="0.4666666666666667" d="M 415.5 108 L 417 108.5 Q 410.4 110.4 407 115.5 L 402.5 124 L 402 122.5 Q 405.3 114.8 411.5 110 L 415.5 108 Z "></path><path fill="rgb(192,103,0)" stroke="rgb(192,103,0)" stroke-width="1" opacity="0.4666666666666667" d="M 494.5 108 L 500 111.5 Q 503.5 115.5 502 124.5 L 501 124.5 Q 502.3 114.9 499 111 Q 493.9 110.5 494.5 108 Z "></path><path fill="rgb(192,103,0)" stroke="rgb(192,103,0)" stroke-width="1" opacity="0.4666666666666667" d="M 5.5 109 L 2 113.5 L 0.5 119 L 0 115.5 L 5.5 109 Z "></path><path fill="rgb(192,103,0)" stroke="rgb(192,103,0)" stroke-width="1" opacity="0.4666666666666667" d="M 298.5 116 L 299 119.5 L 298 119.5 L 298.5 116 Z "></path><path fill="rgb(192,103,0)" stroke="rgb(192,103,0)" stroke-width="1" opacity="0.4666666666666667" d="M 181.5 120 L 184 127.5 L 196 143.5 L 194 142.5 L 183 127.5 Q 180 124.8 181.5 120 Z "></path><path fill="rgb(192,103,0)" stroke="rgb(192,103,0)" stroke-width="1" opacity="0.4666666666666667" d="M 299.5 121 L 300 240.5 L 299 240.5 L 299.5 121 Z "></path><path fill="rgb(192,103,0)" stroke="rgb(192,103,0)" stroke-width="1" opacity="0.4666666666666667" d="M 98.5 122 L 100 125.5 L 99 125.5 L 98.5 122 Z "></path><path fill="rgb(192,103,0)" stroke="rgb(192,103,0)" stroke-width="1" opacity="0.4666666666666667" d="M 0.5 126 L 1 130.5 L 0 130.5 L 0.5 126 Z "></path><path fill="rgb(192,103,0)" stroke="rgb(192,103,0)" stroke-width="1" opacity="0.4666666666666667" d="M 100.5 127 L 102 130.5 L 101 130.5 L 100.5 127 Z "></path><path fill="rgb(192,103,0)" stroke="rgb(192,103,0)" stroke-width="1" opacity="0.4666666666666667" d="M 400.5 127 L 401 128.5 L 396.5 137 L 396 135.5 L 400.5 127 Z "></path><path fill="rgb(192,103,0)" stroke="rgb(192,103,0)" stroke-width="1" opacity="0.4666666666666667" d="M 499.5 129 L 500 131.5 L 497.5 137 L 497 135.5 L 499.5 129 Z "></path><path fill="rgb(192,103,0)" stroke="rgb(192,103,0)" stroke-width="1" opacity="0.4666666666666667" d="M 1.5 132 L 2 135.5 L 1 135.5 L 1.5 132 Z "></path><path fill="rgb(192,103,0)" stroke="rgb(192,103,0)" stroke-width="1" opacity="0.4666666666666667" d="M 103.5 135 L 106 141.5 L 105 141.5 L 103.5 135 Z "></path><path fill="rgb(192,103,0)" stroke="rgb(192,103,0)" stroke-width="1" opacity="0.4666666666666667" d="M 2.5 137 L 3 139.5 L 2 139.5 L 2.5 137 Z "></path><path fill="rgb(192,103,0)" stroke="rgb(192,103,0)" stroke-width="1" opacity="0.4666666666666667" d="M 496.5 138 L 497 139.5 L 491.5 150 L 491 148.5 L 496.5 138 Z "></path><path fill="rgb(192,103,0)" stroke="rgb(192,103,0)" stroke-width="1" opacity="0.4666666666666667" d="M 3.5 141 L 5 146.5 L 4 146.5 L 3.5 141 Z "></path><path fill="rgb(192,103,0)" stroke="rgb(192,103,0)" stroke-width="1" opacity="0.4666666666666667" d="M 106.5 143 L 108 146.5 L 107 146.5 L 106.5 143 Z "></path><path fill="rgb(192,103,0)" stroke="rgb(192,103,0)" stroke-width="1" opacity="0.4666666666666667" d="M 392.5 144 L 393 145.5 L 389.5 151 L 390 149.5 L 392.5 144 Z "></path><path fill="rgb(192,103,0)" stroke="rgb(192,103,0)" stroke-width="1" opacity="0.4666666666666667" d="M 108.5 148 L 110 151.5 L 109 151.5 L 108.5 148 Z "></path><path fill="rgb(192,103,0)" stroke="rgb(192,103,0)" stroke-width="1" opacity="0.4666666666666667" d="M 198.5 149 L 201 156.5 L 200 156.5 L 198.5 149 Z "></path><path fill="rgb(192,103,0)" stroke="rgb(192,103,0)" stroke-width="1" opacity="0.4666666666666667" d="M 6.5 151 L 9 158.5 L 8 158.5 L 6.5 151 Z "></path><path fill="rgb(192,103,0)" stroke="rgb(192,103,0)" stroke-width="1" opacity="0.4666666666666667" d="M 490.5 151 L 490 152.5 L 468 191.5 L 424 255.5 L 420.5 263 L 420 261.5 L 460 202.5 L 490.5 151 Z "></path><path fill="rgb(192,103,0)" stroke="rgb(192,103,0)" stroke-width="1" opacity="0.4666666666666667" d="M 110.5 153 L 112 156.5 L 111 156.5 L 110.5 153 Z "></path><path fill="rgb(192,103,0)" stroke="rgb(192,103,0)" stroke-width="1" opacity="0.4666666666666667" d="M 386.5 156 L 386 157.5 L 380.5 168 L 381 166.5 L 386.5 156 Z "></path><path fill="rgb(192,103,0)" stroke="rgb(192,103,0)" stroke-width="1" opacity="0.4666666666666667" d="M 112.5 158 L 116 165.5 L 115 165.5 L 112.5 158 Z "></path><path fill="rgb(192,103,0)" stroke="rgb(192,103,0)" stroke-width="1" opacity="0.4666666666666667" d="M 201.5 158 L 202 160.5 L 201 160.5 L 201.5 158 Z "></path><path fill="rgb(192,103,0)" stroke="rgb(192,103,0)" stroke-width="1" opacity="0.4666666666666667" d="M 202.5 163 L 203 167.5 L 202 167.5 L 202.5 163 Z "></path><path fill="rgb(192,103,0)" stroke="rgb(192,103,0)" stroke-width="1" opacity="0.4666666666666667" d="M 11.5 166 L 13 169.5 L 12 169.5 L 11.5 166 Z "></path><path fill="rgb(192,103,0)" stroke="rgb(192,103,0)" stroke-width="1" opacity="0.4666666666666667" d="M 116.5 167 L 120 174.5 L 119 174.5 L 116.5 167 Z "></path><path fill="rgb(192,103,0)" stroke="rgb(192,103,0)" stroke-width="1" opacity="0.4666666666666667" d="M 379.5 169 L 379 170.5 L 376.5 175 L 377 173.5 L 379.5 169 Z "></path><path fill="rgb(192,103,0)" stroke="rgb(192,103,0)" stroke-width="1" opacity="0.4666666666666667" d="M 13.5 171 L 17 179.5 L 16 179.5 L 13.5 171 Z "></path><path fill="rgb(192,103,0)" stroke="rgb(192,103,0)" stroke-width="1" opacity="0.4666666666666667" d="M 203.5 171 L 204 259.5 L 203 259.5 L 203.5 171 Z "></path><path fill="rgb(192,103,0)" stroke="rgb(192,103,0)" stroke-width="1" opacity="0.4666666666666667" d="M 375.5 176 L 375 177.5 L 365.5 193 L 366 191.5 L 375.5 176 Z "></path><path fill="rgb(192,103,0)" stroke="rgb(192,103,0)" stroke-width="1" opacity="0.4666666666666667" d="M 121.5 178 L 133 200.5 L 131 199.5 L 121 179.5 L 121.5 178 Z "></path><path fill="rgb(192,103,0)" stroke="rgb(192,103,0)" stroke-width="1" opacity="0.4666666666666667" d="M 17.5 181 L 19 184.5 L 18 184.5 L 17.5 181 Z "></path><path fill="rgb(192,103,0)" stroke="rgb(192,103,0)" stroke-width="1" opacity="0.4666666666666667" d="M 19.5 186 L 23 193.5 L 22 193.5 L 19.5 186 Z "></path><path fill="rgb(192,103,0)" stroke="rgb(192,103,0)" stroke-width="1" opacity="0.4666666666666667" d="M 364.5 194 L 364 195.5 Q 349.4 220.4 329.5 240 L 319.5 248 L 321.5 245 L 335 233.5 Q 351.3 215.3 364.5 194 Z "></path><path fill="rgb(192,103,0)" stroke="rgb(192,103,0)" stroke-width="1" opacity="0.4666666666666667" d="M 23.5 195 L 40 227.5 L 38 226.5 L 23 196.5 L 23.5 195 Z "></path><path fill="rgb(192,103,0)" stroke="rgb(192,103,0)" stroke-width="1" opacity="0.4666666666666667" d="M 133.5 202 Q 145.8 225.7 161 246.5 L 181.5 269 L 189 273.5 L 187.5 274 Q 175.9 267.1 168 256.5 Q 147.3 231.8 133.5 202 Z "></path><path fill="rgb(192,103,0)" stroke="rgb(192,103,0)" stroke-width="1" opacity="0.4666666666666667" d="M 41.5 231 L 46 238.5 L 44 237.5 L 41.5 231 Z "></path><path fill="rgb(192,103,0)" stroke="rgb(192,103,0)" stroke-width="1" opacity="0.4666666666666667" d="M 46.5 240 L 53 250.5 L 51 249.5 L 46.5 240 Z "></path><path fill="rgb(192,103,0)" stroke="rgb(192,103,0)" stroke-width="1" opacity="0.4666666666666667" d="M 300.5 242 Q 301.5 248 306 250.5 L 304.5 250 Q 302.3 250.8 303 248.5 Q 298.8 246.6 300.5 242 Z "></path><path fill="rgb(192,103,0)" stroke="rgb(192,103,0)" stroke-width="1" opacity="0.4666666666666667" d="M 317.5 248 L 316.5 250 L 312.5 251 L 312.5 250 L 317.5 248 Z "></path><path fill="rgb(192,103,0)" stroke="rgb(192,103,0)" stroke-width="1" opacity="0.4666666666666667" d="M 307.5 251 L 311 251.5 L 307.5 252 L 307.5 251 Z "></path><path fill="rgb(192,103,0)" stroke="rgb(192,103,0)" stroke-width="1" opacity="0.4666666666666667" d="M 53.5 252 L 61 263.5 L 59 262.5 L 53.5 252 Z "></path><path fill="rgb(192,103,0)" stroke="rgb(192,103,0)" stroke-width="1" opacity="0.4666666666666667" d="M 202.5 263 L 203 266.5 L 202 266.5 L 202.5 263 Z "></path><path fill="rgb(192,103,0)" stroke="rgb(192,103,0)" stroke-width="1" opacity="0.4666666666666667" d="M 419.5 264 L 420 267.5 L 419 267.5 L 419.5 264 Z "></path><path fill="rgb(192,103,0)" stroke="rgb(192,103,0)" stroke-width="1" opacity="0.4666666666666667" d="M 61.5 265 L 70 277.5 L 68 276.5 L 61.5 265 Z "></path><path fill="rgb(192,103,0)" stroke="rgb(192,103,0)" stroke-width="1" opacity="0.4666666666666667" d="M 200.5 271 L 198.5 274 L 200.5 271 Z "></path><path fill="rgb(192,103,0)" stroke="rgb(192,103,0)" stroke-width="1" opacity="0.4666666666666667" d="M 190.5 274 L 197 274.5 L 190.5 275 L 190.5 274 Z "></path><path fill="rgb(192,103,0)" stroke="rgb(192,103,0)" stroke-width="1" opacity="0.4666666666666667" d="M 422.5 274 L 478 332.5 Q 492.9 349.1 505 368.5 L 503 367.5 L 497 357.5 L 476 331.5 L 424 277.5 L 422.5 274 Z "></path><path fill="rgb(192,103,0)" stroke="rgb(192,103,0)" stroke-width="1" opacity="0.4666666666666667" d="M 70.5 279 L 102 322.5 L 129.5 351 Q 147.4 367.1 169 379.5 L 167.5 379 Q 131.8 358.7 106 328.5 Q 85.9 305.2 70.5 279 Z "></path><path fill="rgb(192,103,0)" stroke="rgb(192,103,0)" stroke-width="1" opacity="0.4666666666666667" d="M 306.5 316 L 309 316.5 L 302 320.5 L 301.5 322 L 301 320.5 L 306.5 316 Z "></path><path fill="rgb(192,103,0)" stroke="rgb(192,103,0)" stroke-width="1" opacity="0.4666666666666667" d="M 317.5 316 L 326 318.5 L 324.5 319 L 317.5 317 L 317.5 316 Z "></path><path fill="rgb(192,103,0)" stroke="rgb(192,103,0)" stroke-width="1" opacity="0.4666666666666667" d="M 327.5 319 L 332 321.5 L 330.5 321 Q 326.8 320.7 327.5 319 Z "></path><path fill="rgb(192,103,0)" stroke="rgb(192,103,0)" stroke-width="1" opacity="0.4666666666666667" d="M 333.5 322 Q 365.4 343.1 390 371.5 L 412.5 396 L 417 399.5 L 413.5 397 L 400 384.5 L 362.5 345 Q 349.9 333.1 334.5 324 L 333.5 322 Z "></path><path fill="rgb(192,103,0)" stroke="rgb(192,103,0)" stroke-width="1" opacity="0.4666666666666667" d="M 300.5 323 L 301 325.5 L 300 325.5 L 300.5 323 Z "></path><path fill="rgb(192,103,0)" stroke="rgb(192,103,0)" stroke-width="1" opacity="0.4666666666666667" d="M 299.5 328 L 300 388.5 L 299 388.5 L 299.5 328 Z "></path><path fill="rgb(192,103,0)" stroke="rgb(192,103,0)" stroke-width="1" opacity="0.4666666666666667" d="M 505.5 370 L 510 378.5 L 509 378.5 L 505.5 370 Z "></path><path fill="rgb(192,103,0)" stroke="rgb(192,103,0)" stroke-width="1" opacity="0.4666666666666667" d="M 170.5 380 L 191 390.5 L 189.5 391 L 171.5 382 L 170.5 380 Z "></path><path fill="rgb(192,103,0)" stroke="rgb(192,103,0)" stroke-width="1" opacity="0.4666666666666667" d="M 511.5 383 L 512 386.5 L 511 386.5 L 511.5 383 Z "></path><path fill="rgb(192,103,0)" stroke="rgb(192,103,0)" stroke-width="1" opacity="0.4666666666666667" d="M 192.5 391 L 196 392.5 L 194.5 393 L 192.5 391 Z "></path><path fill="rgb(192,103,0)" stroke="rgb(192,103,0)" stroke-width="1" opacity="0.4666666666666667" d="M 197.5 393 L 204 395.5 L 202.5 396 L 197.5 394 L 197.5 393 Z "></path><path fill="rgb(192,103,0)" stroke="rgb(192,103,0)" stroke-width="1" opacity="0.4666666666666667" d="M 511.5 393 L 512 395.5 L 509 401 L 502.5 404 L 502.5 403 L 510 397.5 L 511.5 393 Z "></path><path fill="rgb(192,103,0)" stroke="rgb(192,103,0)" stroke-width="1" opacity="0.4666666666666667" d="M 297.5 394 L 298 395.5 L 293 399.5 L 297.5 394 Z "></path><path fill="rgb(192,103,0)" stroke="rgb(192,103,0)" stroke-width="1" opacity="0.4666666666666667" d="M 208.5 397 L 214 398.5 L 211.5 399 L 208.5 398 L 208.5 397 Z "></path><path fill="rgb(192,103,0)" stroke="rgb(192,103,0)" stroke-width="1" opacity="0.4666666666666667" d="M 215.5 399 L 226 401.5 L 222.5 402 L 215.5 400 L 215.5 399 Z "></path><path fill="rgb(192,103,0)" stroke="rgb(192,103,0)" stroke-width="1" opacity="0.4666666666666667" d="M 291.5 400 L 290.5 402 L 289 401.5 L 291.5 400 Z "></path><path fill="rgb(192,103,0)" stroke="rgb(192,103,0)" stroke-width="1" opacity="0.4666666666666667" d="M 418.5 400 L 425 403.5 L 423.5 404 Q 418.9 402.8 418.5 400 Z "></path><path fill="rgb(192,103,0)" stroke="rgb(192,103,0)" stroke-width="1" opacity="0.4666666666666667" d="M 227.5 402 L 231 402.5 L 227.5 403 L 227.5 402 Z "></path><path fill="rgb(192,103,0)" stroke="rgb(192,103,0)" stroke-width="1" opacity="0.4666666666666667" d="M 232.5 403 L 237 403.5 L 232.5 404 L 232.5 403 Z "></path><path fill="rgb(192,103,0)" stroke="rgb(192,103,0)" stroke-width="1" opacity="0.4666666666666667" d="M 281.5 403 L 285 403.5 L 281.5 404 L 281.5 403 Z "></path><path fill="rgb(192,103,0)" stroke="rgb(192,103,0)" stroke-width="1" opacity="0.4666666666666667" d="M 239.5 404 L 246 404.5 L 239.5 405 L 239.5 404 Z "></path><path fill="rgb(192,103,0)" stroke="rgb(192,103,0)" stroke-width="1" opacity="0.4666666666666667" d="M 274.5 404 L 280 404.5 L 274.5 405 L 274.5 404 Z "></path><path fill="rgb(192,103,0)" stroke="rgb(192,103,0)" stroke-width="1" opacity="0.4666666666666667" d="M 426.5 404 L 429 404.5 L 426.5 405 L 426.5 404 Z "></path><path fill="rgb(192,103,0)" stroke="rgb(192,103,0)" stroke-width="1" opacity="0.4666666666666667" d="M 498.5 404 L 501 404.5 L 498.5 405 L 498.5 404 Z "></path><path fill="rgb(192,103,0)" stroke="rgb(192,103,0)" stroke-width="1" opacity="0.4666666666666667" d="M 250.5 405 L 270 405.5 L 250.5 406 L 250.5 405 Z "></path><path fill="rgb(192,103,0)" stroke="rgb(192,103,0)" stroke-width="1" opacity="0.4666666666666667" d="M 430.5 405 L 497 405.5 L 430.5 406 L 430.5 405 Z "></path><path fill="rgb(187,100,0)" stroke="rgb(187,100,0)" stroke-width="1" opacity="0.996078431372549" d="M 6.5 109 L 5.5 111 L 6.5 109 Z "></path><path fill="rgb(187,100,0)" stroke="rgb(187,100,0)" stroke-width="1" opacity="0.996078431372549" d="M 185.5 110 L 184.5 112 L 185.5 110 Z "></path><path fill="rgb(187,100,0)" stroke="rgb(187,100,0)" stroke-width="1" opacity="0.996078431372549" d="M 90.5 111 L 93.5 115 L 90.5 111 Z "></path><path fill="rgb(187,100,0)" stroke="rgb(187,100,0)" stroke-width="1" opacity="0.996078431372549" d="M 411.5 111 L 407.5 116 L 411.5 111 Z "></path><path fill="rgb(187,100,0)" stroke="rgb(187,100,0)" stroke-width="1" opacity="0.996078431372549" d="M 3.5 112 L 2.5 114 L 3.5 112 Z "></path><path fill="rgb(187,100,0)" stroke="rgb(187,100,0)" stroke-width="1" opacity="0.996078431372549" d="M 94.5 116 L 95.5 118 L 94.5 116 Z "></path><path fill="rgb(187,100,0)" stroke="rgb(187,100,0)" stroke-width="1" opacity="0.996078431372549" d="M 0.5 119 L 1 125.5 L 0 125.5 L 0.5 119 Z "></path><path fill="rgb(187,100,0)" stroke="rgb(187,100,0)" stroke-width="1" opacity="0.996078431372549" d="M 184.5 127 L 185.5 129 L 184.5 127 Z "></path><path fill="rgb(187,100,0)" stroke="rgb(187,100,0)" stroke-width="1" opacity="0.996078431372549" d="M 187.5 131 L 189.5 134 L 187.5 131 Z "></path><path fill="rgb(187,100,0)" stroke="rgb(187,100,0)" stroke-width="1" opacity="0.996078431372549" d="M 191.5 136 L 192.5 138 L 191.5 136 Z "></path><path fill="rgb(187,100,0)" stroke="rgb(187,100,0)" stroke-width="1" opacity="0.996078431372549" d="M 193.5 139 L 194.5 141 L 193.5 139 Z "></path><path fill="rgb(187,100,0)" stroke="rgb(187,100,0)" stroke-width="1" opacity="0.996078431372549" d="M 490.5 150 L 489.5 152 L 490.5 150 Z "></path><path fill="rgb(187,100,0)" stroke="rgb(187,100,0)" stroke-width="1" opacity="0.996078431372549" d="M 203.5 168 L 204 170.5 L 203 170.5 L 203.5 168 Z "></path><path fill="rgb(187,100,0)" stroke="rgb(187,100,0)" stroke-width="1" opacity="0.996078431372549" d="M 377.5 174 L 376.5 176 L 377.5 174 Z "></path><path fill="rgb(187,100,0)" stroke="rgb(187,100,0)" stroke-width="1" opacity="0.996078431372549" d="M 471.5 183 L 470.5 185 L 471.5 183 Z "></path><path fill="rgb(187,100,0)" stroke="rgb(187,100,0)" stroke-width="1" opacity="0.996078431372549" d="M 368.5 189 L 367.5 191 L 368.5 189 Z "></path><path fill="rgb(187,100,0)" stroke="rgb(187,100,0)" stroke-width="1" opacity="0.996078431372549" d="M 466.5 191 L 465.5 193 L 466.5 191 Z "></path><path fill="rgb(187,100,0)" stroke="rgb(187,100,0)" stroke-width="1" opacity="0.996078431372549" d="M 366.5 192 L 365.5 194 L 366.5 192 Z "></path><path fill="rgb(187,100,0)" stroke="rgb(187,100,0)" stroke-width="1" opacity="0.996078431372549" d="M 464.5 194 L 463.5 196 L 464.5 194 Z "></path><path fill="rgb(187,100,0)" stroke="rgb(187,100,0)" stroke-width="1" opacity="0.996078431372549" d="M 459.5 202 L 458.5 204 L 459.5 202 Z "></path><path fill="rgb(187,100,0)" stroke="rgb(187,100,0)" stroke-width="1" opacity="0.996078431372549" d="M 457.5 205 L 456.5 207 L 457.5 205 Z "></path><path fill="rgb(187,100,0)" stroke="rgb(187,100,0)" stroke-width="1" opacity="0.996078431372549" d="M 356.5 207 L 355.5 209 L 356.5 207 Z "></path><path fill="rgb(187,100,0)" stroke="rgb(187,100,0)" stroke-width="1" opacity="0.996078431372549" d="M 455.5 208 L 454.5 210 L 455.5 208 Z "></path><path fill="rgb(187,100,0)" stroke="rgb(187,100,0)" stroke-width="1" opacity="0.996078431372549" d="M 354.5 210 L 352.5 213 L 354.5 210 Z "></path><path fill="rgb(187,100,0)" stroke="rgb(187,100,0)" stroke-width="1" opacity="0.996078431372549" d="M 453.5 211 L 452.5 213 L 453.5 211 Z "></path><path fill="rgb(187,100,0)" stroke="rgb(187,100,0)" stroke-width="1" opacity="0.996078431372549" d="M 351.5 214 L 350.5 216 L 351.5 214 Z "></path><path fill="rgb(187,100,0)" stroke="rgb(187,100,0)" stroke-width="1" opacity="0.996078431372549" d="M 451.5 214 L 450.5 216 L 451.5 214 Z "></path><path fill="rgb(187,100,0)" stroke="rgb(187,100,0)" stroke-width="1" opacity="0.996078431372549" d="M 449.5 217 L 448.5 219 L 449.5 217 Z "></path><path fill="rgb(187,100,0)" stroke="rgb(187,100,0)" stroke-width="1" opacity="0.996078431372549" d="M 348.5 218 L 346.5 221 L 348.5 218 Z "></path><path fill="rgb(187,100,0)" stroke="rgb(187,100,0)" stroke-width="1" opacity="0.996078431372549" d="M 447.5 220 L 446.5 222 L 447.5 220 Z "></path><path fill="rgb(187,100,0)" stroke="rgb(187,100,0)" stroke-width="1" opacity="0.996078431372549" d="M 344.5 223 L 342.5 226 L 344.5 223 Z "></path><path fill="rgb(187,100,0)" stroke="rgb(187,100,0)" stroke-width="1" opacity="0.996078431372549" d="M 445.5 223 L 444.5 225 L 445.5 223 Z "></path><path fill="rgb(187,100,0)" stroke="rgb(187,100,0)" stroke-width="1" opacity="0.996078431372549" d="M 146.5 226 L 147.5 228 L 146.5 226 Z "></path><path fill="rgb(187,100,0)" stroke="rgb(187,100,0)" stroke-width="1" opacity="0.996078431372549" d="M 340.5 228 L 336.5 233 L 340.5 228 Z "></path><path fill="rgb(187,100,0)" stroke="rgb(187,100,0)" stroke-width="1" opacity="0.996078431372549" d="M 41.5 230 L 42.5 232 L 41.5 230 Z "></path><path fill="rgb(187,100,0)" stroke="rgb(187,100,0)" stroke-width="1" opacity="0.996078431372549" d="M 440.5 230 L 439.5 232 L 440.5 230 Z "></path><path fill="rgb(187,100,0)" stroke="rgb(187,100,0)" stroke-width="1" opacity="0.996078431372549" d="M 438.5 233 L 437.5 235 L 438.5 233 Z "></path><path fill="rgb(187,100,0)" stroke="rgb(187,100,0)" stroke-width="1" opacity="0.996078431372549" d="M 436.5 236 L 435.5 238 L 436.5 236 Z "></path><path fill="rgb(187,100,0)" stroke="rgb(187,100,0)" stroke-width="1" opacity="0.996078431372549" d="M 46.5 239 L 47.5 241 L 46.5 239 Z "></path><path fill="rgb(187,100,0)" stroke="rgb(187,100,0)" stroke-width="1" opacity="0.996078431372549" d="M 434.5 239 L 433.5 241 L 434.5 239 Z "></path><path fill="rgb(187,100,0)" stroke="rgb(187,100,0)" stroke-width="1" opacity="0.996078431372549" d="M 328.5 240 L 324.5 245 L 328.5 240 Z "></path><path fill="rgb(187,100,0)" stroke="rgb(187,100,0)" stroke-width="1" opacity="0.996078431372549" d="M 156.5 241 L 157.5 243 L 156.5 241 Z "></path><path fill="rgb(187,100,0)" stroke="rgb(187,100,0)" stroke-width="1" opacity="0.996078431372549" d="M 431.5 243 L 430.5 245 L 431.5 243 Z "></path><path fill="rgb(187,100,0)" stroke="rgb(187,100,0)" stroke-width="1" opacity="0.996078431372549" d="M 49.5 244 L 50.5 246 L 49.5 244 Z "></path><path fill="rgb(187,100,0)" stroke="rgb(187,100,0)" stroke-width="1" opacity="0.996078431372549" d="M 158.5 244 L 159.5 246 L 158.5 244 Z "></path><path fill="rgb(187,100,0)" stroke="rgb(187,100,0)" stroke-width="1" opacity="0.996078431372549" d="M 321.5 246 L 320.5 248 L 321.5 246 Z "></path><path fill="rgb(187,100,0)" stroke="rgb(187,100,0)" stroke-width="1" opacity="0.996078431372549" d="M 429.5 246 L 428.5 248 L 429.5 246 Z "></path><path fill="rgb(187,100,0)" stroke="rgb(187,100,0)" stroke-width="1" opacity="0.996078431372549" d="M 301.5 247 L 302.5 249 L 301.5 247 Z "></path><path fill="rgb(187,100,0)" stroke="rgb(187,100,0)" stroke-width="1" opacity="0.996078431372549" d="M 161.5 248 L 162.5 250 L 161.5 248 Z "></path><path fill="rgb(187,100,0)" stroke="rgb(187,100,0)" stroke-width="1" opacity="0.996078431372549" d="M 318.5 248 L 317.5 250 L 318.5 248 Z "></path><path fill="rgb(187,100,0)" stroke="rgb(187,100,0)" stroke-width="1" opacity="0.996078431372549" d="M 304.5 250 L 307 251.5 L 305.5 252 L 304.5 250 Z "></path><path fill="rgb(187,100,0)" stroke="rgb(187,100,0)" stroke-width="1" opacity="0.996078431372549" d="M 426.5 250 L 425.5 252 L 426.5 250 Z "></path><path fill="rgb(187,100,0)" stroke="rgb(187,100,0)" stroke-width="1" opacity="0.996078431372549" d="M 53.5 251 L 54.5 253 L 53.5 251 Z "></path><path fill="rgb(187,100,0)" stroke="rgb(187,100,0)" stroke-width="1" opacity="0.996078431372549" d="M 164.5 252 L 167.5 256 L 164.5 252 Z "></path><path fill="rgb(187,100,0)" stroke="rgb(187,100,0)" stroke-width="1" opacity="0.996078431372549" d="M 424.5 253 L 423.5 255 L 424.5 253 Z "></path><path fill="rgb(187,100,0)" stroke="rgb(187,100,0)" stroke-width="1" opacity="0.996078431372549" d="M 169.5 258 L 180.5 270 L 169.5 258 Z "></path><path fill="rgb(187,100,0)" stroke="rgb(187,100,0)" stroke-width="1" opacity="0.996078431372549" d="M 58.5 259 L 59.5 261 L 58.5 259 Z "></path><path fill="rgb(187,100,0)" stroke="rgb(187,100,0)" stroke-width="1" opacity="0.996078431372549" d="M 203.5 260 L 204 262.5 L 203 262.5 L 203.5 260 Z "></path><path fill="rgb(187,100,0)" stroke="rgb(187,100,0)" stroke-width="1" opacity="0.996078431372549" d="M 61.5 264 L 62.5 266 L 61.5 264 Z "></path><path fill="rgb(187,100,0)" stroke="rgb(187,100,0)" stroke-width="1" opacity="0.996078431372549" d="M 63.5 267 L 64.5 269 L 63.5 267 Z "></path><path fill="rgb(187,100,0)" stroke="rgb(187,100,0)" stroke-width="1" opacity="0.996078431372549" d="M 182.5 270 L 183.5 272 L 182.5 270 Z "></path><path fill="rgb(187,100,0)" stroke="rgb(187,100,0)" stroke-width="1" opacity="0.996078431372549" d="M 200.5 272 L 199.5 274 L 200.5 272 Z "></path><path fill="rgb(187,100,0)" stroke="rgb(187,100,0)" stroke-width="1" opacity="0.996078431372549" d="M 422.5 275 L 423.5 277 L 422.5 275 Z "></path><path fill="rgb(187,100,0)" stroke="rgb(187,100,0)" stroke-width="1" opacity="0.996078431372549" d="M 70.5 278 L 71.5 280 L 70.5 278 Z "></path><path fill="rgb(187,100,0)" stroke="rgb(187,100,0)" stroke-width="1" opacity="0.996078431372549" d="M 424.5 278 L 452.5 307 L 424.5 278 Z "></path><path fill="rgb(187,100,0)" stroke="rgb(187,100,0)" stroke-width="1" opacity="0.996078431372549" d="M 77.5 288 L 78.5 290 L 77.5 288 Z "></path><path fill="rgb(187,100,0)" stroke="rgb(187,100,0)" stroke-width="1" opacity="0.996078431372549" d="M 79.5 291 L 80.5 293 L 79.5 291 Z "></path><path fill="rgb(187,100,0)" stroke="rgb(187,100,0)" stroke-width="1" opacity="0.996078431372549" d="M 81.5 294 L 82.5 296 L 81.5 294 Z "></path><path fill="rgb(187,100,0)" stroke="rgb(187,100,0)" stroke-width="1" opacity="0.996078431372549" d="M 84.5 298 L 85.5 300 L 84.5 298 Z "></path><path fill="rgb(187,100,0)" stroke="rgb(187,100,0)" stroke-width="1" opacity="0.996078431372549" d="M 86.5 301 L 87.5 303 L 86.5 301 Z "></path><path fill="rgb(187,100,0)" stroke="rgb(187,100,0)" stroke-width="1" opacity="0.996078431372549" d="M 89.5 305 L 90.5 307 L 89.5 305 Z "></path><path fill="rgb(187,100,0)" stroke="rgb(187,100,0)" stroke-width="1" opacity="0.996078431372549" d="M 91.5 308 L 93.5 311 L 91.5 308 Z "></path><path fill="rgb(187,100,0)" stroke="rgb(187,100,0)" stroke-width="1" opacity="0.996078431372549" d="M 94.5 312 L 96.5 315 L 94.5 312 Z "></path><path fill="rgb(187,100,0)" stroke="rgb(187,100,0)" stroke-width="1" opacity="0.996078431372549" d="M 458.5 313 L 467.5 323 L 458.5 313 Z "></path><path fill="rgb(187,100,0)" stroke="rgb(187,100,0)" stroke-width="1" opacity="0.996078431372549" d="M 309.5 315 L 317 315.5 L 309.5 316 L 309.5 315 Z "></path><path fill="rgb(187,100,0)" stroke="rgb(187,100,0)" stroke-width="1" opacity="0.996078431372549" d="M 98.5 317 L 100.5 320 L 98.5 317 Z "></path><path fill="rgb(187,100,0)" stroke="rgb(187,100,0)" stroke-width="1" opacity="0.996078431372549" d="M 303.5 317 L 302.5 319 L 303.5 317 Z "></path><path fill="rgb(187,100,0)" stroke="rgb(187,100,0)" stroke-width="1" opacity="0.996078431372549" d="M 102.5 322 L 105.5 326 L 102.5 322 Z "></path><path fill="rgb(187,100,0)" stroke="rgb(187,100,0)" stroke-width="1" opacity="0.996078431372549" d="M 336.5 323 L 337.5 325 L 336.5 323 Z "></path><path fill="rgb(187,100,0)" stroke="rgb(187,100,0)" stroke-width="1" opacity="0.996078431372549" d="M 339.5 325 L 340.5 327 L 339.5 325 Z "></path><path fill="rgb(187,100,0)" stroke="rgb(187,100,0)" stroke-width="1" opacity="0.996078431372549" d="M 342.5 327 L 344.5 330 L 342.5 327 Z "></path><path fill="rgb(187,100,0)" stroke="rgb(187,100,0)" stroke-width="1" opacity="0.996078431372549" d="M 471.5 327 L 475.5 332 L 471.5 327 Z "></path><path fill="rgb(187,100,0)" stroke="rgb(187,100,0)" stroke-width="1" opacity="0.996078431372549" d="M 108.5 329 L 129.5 351 L 108.5 329 Z "></path><path fill="rgb(187,100,0)" stroke="rgb(187,100,0)" stroke-width="1" opacity="0.996078431372549" d="M 346.5 330 L 348.5 333 L 346.5 330 Z "></path><path fill="rgb(187,100,0)" stroke="rgb(187,100,0)" stroke-width="1" opacity="0.996078431372549" d="M 351.5 334 L 353.5 337 L 351.5 334 Z "></path><path fill="rgb(187,100,0)" stroke="rgb(187,100,0)" stroke-width="1" opacity="0.996078431372549" d="M 478.5 335 L 481.5 339 L 478.5 335 Z "></path><path fill="rgb(187,100,0)" stroke="rgb(187,100,0)" stroke-width="1" opacity="0.996078431372549" d="M 357.5 339 L 361.5 344 L 357.5 339 Z "></path><path fill="rgb(187,100,0)" stroke="rgb(187,100,0)" stroke-width="1" opacity="0.996078431372549" d="M 483.5 341 L 486.5 345 L 483.5 341 Z "></path><path fill="rgb(187,100,0)" stroke="rgb(187,100,0)" stroke-width="1" opacity="0.996078431372549" d="M 365.5 346 L 385.5 367 L 365.5 346 Z "></path><path fill="rgb(187,100,0)" stroke="rgb(187,100,0)" stroke-width="1" opacity="0.996078431372549" d="M 488.5 347 L 490.5 350 L 488.5 347 Z "></path><path fill="rgb(187,100,0)" stroke="rgb(187,100,0)" stroke-width="1" opacity="0.996078431372549" d="M 492.5 352 L 493.5 354 L 492.5 352 Z "></path><path fill="rgb(187,100,0)" stroke="rgb(187,100,0)" stroke-width="1" opacity="0.996078431372549" d="M 133.5 353 L 136.5 357 L 133.5 353 Z "></path><path fill="rgb(187,100,0)" stroke="rgb(187,100,0)" stroke-width="1" opacity="0.996078431372549" d="M 495.5 356 L 496.5 358 L 495.5 356 Z "></path><path fill="rgb(187,100,0)" stroke="rgb(187,100,0)" stroke-width="1" opacity="0.996078431372549" d="M 139.5 358 L 141.5 361 L 139.5 358 Z "></path><path fill="rgb(187,100,0)" stroke="rgb(187,100,0)" stroke-width="1" opacity="0.996078431372549" d="M 497.5 359 L 498.5 361 L 497.5 359 Z "></path><path fill="rgb(187,100,0)" stroke="rgb(187,100,0)" stroke-width="1" opacity="0.996078431372549" d="M 144.5 362 L 145.5 364 L 144.5 362 Z "></path><path fill="rgb(187,100,0)" stroke="rgb(187,100,0)" stroke-width="1" opacity="0.996078431372549" d="M 499.5 362 L 500.5 364 L 499.5 362 Z "></path><path fill="rgb(187,100,0)" stroke="rgb(187,100,0)" stroke-width="1" opacity="0.996078431372549" d="M 148.5 365 L 149.5 367 L 148.5 365 Z "></path><path fill="rgb(187,100,0)" stroke="rgb(187,100,0)" stroke-width="1" opacity="0.996078431372549" d="M 501.5 365 L 502.5 367 L 501.5 365 Z "></path><path fill="rgb(187,100,0)" stroke="rgb(187,100,0)" stroke-width="1" opacity="0.996078431372549" d="M 151.5 367 L 152.5 369 L 151.5 367 Z "></path><path fill="rgb(187,100,0)" stroke="rgb(187,100,0)" stroke-width="1" opacity="0.996078431372549" d="M 503.5 368 L 504.5 370 L 503.5 368 Z "></path><path fill="rgb(187,100,0)" stroke="rgb(187,100,0)" stroke-width="1" opacity="0.996078431372549" d="M 390.5 372 L 398.5 381 L 390.5 372 Z "></path><path fill="rgb(187,100,0)" stroke="rgb(187,100,0)" stroke-width="1" opacity="0.996078431372549" d="M 163.5 375 L 164.5 377 L 163.5 375 Z "></path><path fill="rgb(187,100,0)" stroke="rgb(187,100,0)" stroke-width="1" opacity="0.996078431372549" d="M 168.5 378 L 169.5 380 L 168.5 378 Z "></path><path fill="rgb(187,100,0)" stroke="rgb(187,100,0)" stroke-width="1" opacity="0.996078431372549" d="M 402.5 385 L 412.5 396 L 402.5 385 Z "></path><path fill="rgb(187,100,0)" stroke="rgb(187,100,0)" stroke-width="1" opacity="0.996078431372549" d="M 511.5 387 L 512 392.5 L 511 392.5 L 511.5 387 Z "></path><path fill="rgb(187,100,0)" stroke="rgb(187,100,0)" stroke-width="1" opacity="0.996078431372549" d="M 296.5 395 L 292.5 400 L 296.5 395 Z "></path><path fill="rgb(187,100,0)" stroke="rgb(187,100,0)" stroke-width="1" opacity="0.996078431372549" d="M 415.5 397 L 417.5 400 L 415.5 397 Z "></path><path fill="rgb(187,100,0)" stroke="rgb(187,100,0)" stroke-width="1" opacity="0.996078431372549" d="M 237.5 403 L 240 403.5 L 237.5 404 L 237.5 403 Z "></path><path fill="rgb(187,100,0)" stroke="rgb(187,100,0)" stroke-width="1" opacity="0.996078431372549" d="M 246.5 404 L 250 404.5 L 246.5 405 L 246.5 404 Z "></path><path fill="rgb(187,100,0)" stroke="rgb(187,100,0)" stroke-width="1" opacity="0.996078431372549" d="M 271.5 404 L 274 404.5 L 271.5 405 L 271.5 404 Z "></path><path fill="rgb(187,100,0)" stroke="rgb(187,100,0)" stroke-width="1" opacity="1" d="M 14.5 107 L 79.5 107 L 88.5 110 L 94 115.5 L 98 122.5 L 116 169.5 L 136 209.5 L 158 244.5 Q 167.8 258.7 180.5 270 L 188.5 275 L 197.5 275 L 201 272.5 L 204 262.5 L 204 168.5 L 200 150.5 Q 194.1 136.4 184 126.5 Q 181 123.5 182 116.5 L 187.5 109 L 192.5 107 L 286.5 107 Q 293.1 107.9 296 112.5 L 299 122.5 L 299 242.5 Q 300.5 249 305.5 252 Q 313.5 253 317.5 250 Q 331.1 241.1 341 228.5 L 369 189.5 Q 390.1 156.1 406 117.5 L 412.5 111 L 423.5 107 L 488.5 107 L 496.5 110 L 499 112.5 Q 502.2 115.8 501 123.5 L 497 136.5 L 484 162.5 Q 455.9 210.9 423 254.5 L 419 262.5 L 419 269.5 L 424 278.5 Q 462.6 313.9 495 355.5 L 509 378.5 Q 512.3 384.2 511 394.5 L 506.5 401 L 495.5 405 L 431.5 405 L 418.5 400 L 399 381.5 L 365.5 346 Q 349.5 330.5 329.5 319 Q 321.8 314.7 309.5 315 L 302 318.5 L 299 326.5 L 299 388.5 Q 297.6 396.6 291.5 400 L 279.5 404 L 250.5 405 L 249.5 404 L 233.5 403 L 215.5 399 Q 190.6 391.9 170.5 380 Q 133.2 358.3 106 326.5 Q 62.4 273.1 30 208.5 Q 16.2 180.8 6 149.5 L 1 129.5 L 1 116.5 L 4 111 L 14.5 107 Z "></path></svg>