<svg width="512" height="512" version="1.1" xmlns="http://www.w3.org/2000/svg"><path fill="rgb(191,102,0)" stroke="rgb(191,102,0)" stroke-width="1" opacity="0.5568627450980392" d="M 139.5 80 L 198 80.5 L 139.5 81 L 139.5 80 Z "></path><path fill="rgb(191,102,0)" stroke="rgb(191,102,0)" stroke-width="1" opacity="0.5568627450980392" d="M 314.5 80 L 373 80.5 L 314.5 81 L 314.5 80 Z "></path><path fill="rgb(191,102,0)" stroke="rgb(191,102,0)" stroke-width="1" opacity="0.5568627450980392" d="M 101.5 81 L 126 81.5 L 101.5 82 L 101.5 81 Z "></path><path fill="rgb(191,102,0)" stroke="rgb(191,102,0)" stroke-width="1" opacity="0.5568627450980392" d="M 385.5 81 L 410 81.5 L 385.5 82 L 385.5 81 Z "></path><path fill="rgb(191,102,0)" stroke="rgb(191,102,0)" stroke-width="1" opacity="0.5568627450980392" d="M 80.5 82 L 94 82.5 L 80.5 83 L 80.5 82 Z "></path><path fill="rgb(191,102,0)" stroke="rgb(191,102,0)" stroke-width="1" opacity="0.5568627450980392" d="M 417.5 82 L 431 82.5 L 417.5 83 L 417.5 82 Z "></path><path fill="rgb(191,102,0)" stroke="rgb(191,102,0)" stroke-width="1" opacity="0.5568627450980392" d="M 68.5 83 L 77 83.5 L 68.5 84 L 68.5 83 Z "></path><path fill="rgb(191,102,0)" stroke="rgb(191,102,0)" stroke-width="1" opacity="0.5568627450980392" d="M 434.5 83 L 444 83.5 L 434.5 84 L 434.5 83 Z "></path><path fill="rgb(191,102,0)" stroke="rgb(191,102,0)" stroke-width="1" opacity="0.5568627450980392" d="M 61.5 84 L 66 84.5 L 61.5 85 L 61.5 84 Z "></path><path fill="rgb(191,102,0)" stroke="rgb(191,102,0)" stroke-width="1" opacity="0.5568627450980392" d="M 446.5 84 L 451 84.5 L 446.5 85 L 446.5 84 Z "></path><path fill="rgb(191,102,0)" stroke="rgb(191,102,0)" stroke-width="1" opacity="0.5568627450980392" d="M 56.5 85 L 60 85.5 L 56.5 86 L 56.5 85 Z "></path><path fill="rgb(191,102,0)" stroke="rgb(191,102,0)" stroke-width="1" opacity="0.5568627450980392" d="M 452.5 85 Q 461.6 85.4 467 89.5 L 465.5 90 Q 460.8 86.2 452.5 86 L 452.5 85 Z "></path><path fill="rgb(191,102,0)" stroke="rgb(191,102,0)" stroke-width="1" opacity="0.5568627450980392" d="M 52.5 86 L 55 86.5 Q 39.7 90.2 31 100.5 L 19.5 118 L 20 116.5 Q 25.5 103.5 35.5 95 L 52.5 86 Z "></path><path fill="rgb(191,102,0)" stroke="rgb(191,102,0)" stroke-width="1" opacity="0.5568627450980392" d="M 468.5 90 Q 477.3 94.3 483 101.5 Q 492.7 113.3 498 129.5 L 497 129.5 Q 490.8 109.8 477.5 97 L 469.5 92 L 468.5 90 Z "></path><path fill="rgb(191,102,0)" stroke="rgb(191,102,0)" stroke-width="1" opacity="0.5568627450980392" d="M 18.5 119 L 19 120.5 L 12.5 136 L 12 133.5 L 18.5 119 Z "></path><path fill="rgb(191,102,0)" stroke="rgb(191,102,0)" stroke-width="1" opacity="0.5568627450980392" d="M 500.5 137 L 502 142.5 L 501 142.5 L 500.5 137 Z "></path><path fill="rgb(191,102,0)" stroke="rgb(191,102,0)" stroke-width="1" opacity="0.5568627450980392" d="M 10.5 140 L 11 142.5 L 10 142.5 L 10.5 140 Z "></path><path fill="rgb(191,102,0)" stroke="rgb(191,102,0)" stroke-width="1" opacity="0.5568627450980392" d="M 9.5 144 L 10 146.5 L 9 146.5 L 9.5 144 Z "></path><path fill="rgb(191,102,0)" stroke="rgb(191,102,0)" stroke-width="1" opacity="0.5568627450980392" d="M 502.5 144 L 503 146.5 L 502 146.5 L 502.5 144 Z "></path><path fill="rgb(191,102,0)" stroke="rgb(191,102,0)" stroke-width="1" opacity="0.5568627450980392" d="M 8.5 148 L 9 150.5 L 8 150.5 L 8.5 148 Z "></path><path fill="rgb(191,102,0)" stroke="rgb(191,102,0)" stroke-width="1" opacity="0.5568627450980392" d="M 503.5 148 L 504 150.5 L 503 150.5 L 503.5 148 Z "></path><path fill="rgb(191,102,0)" stroke="rgb(191,102,0)" stroke-width="1" opacity="0.5568627450980392" d="M 7.5 152 L 8 155.5 L 7 155.5 L 7.5 152 Z "></path><path fill="rgb(191,102,0)" stroke="rgb(191,102,0)" stroke-width="1" opacity="0.5568627450980392" d="M 504.5 152 L 505 155.5 L 504 155.5 L 504.5 152 Z "></path><path fill="rgb(191,102,0)" stroke="rgb(191,102,0)" stroke-width="1" opacity="0.5568627450980392" d="M 6.5 157 L 7 161.5 L 6 161.5 L 6.5 157 Z "></path><path fill="rgb(191,102,0)" stroke="rgb(191,102,0)" stroke-width="1" opacity="0.5568627450980392" d="M 505.5 157 L 506 161.5 L 505 161.5 L 505.5 157 Z "></path><path fill="rgb(191,102,0)" stroke="rgb(191,102,0)" stroke-width="1" opacity="0.5568627450980392" d="M 192.5 160 L 352 255 Q 353.1 257.7 350.5 257 L 192.5 352 L 193.5 350 L 350 257 Q 351.1 254.3 348.5 255 L 193.5 162 L 192.5 160 Z "></path><path fill="rgb(191,102,0)" stroke="rgb(191,102,0)" stroke-width="1" opacity="0.5568627450980392" d="M 5.5 163 L 6 167.5 L 5 167.5 L 5.5 163 Z "></path><path fill="rgb(191,102,0)" stroke="rgb(191,102,0)" stroke-width="1" opacity="0.5568627450980392" d="M 506.5 163 L 507 167.5 L 506 167.5 L 506.5 163 Z "></path><path fill="rgb(191,102,0)" stroke="rgb(191,102,0)" stroke-width="1" opacity="0.5568627450980392" d="M 4.5 169 L 5 174.5 L 4 174.5 L 4.5 169 Z "></path><path fill="rgb(191,102,0)" stroke="rgb(191,102,0)" stroke-width="1" opacity="0.5568627450980392" d="M 507.5 169 L 508 174.5 L 507 174.5 L 507.5 169 Z "></path><path fill="rgb(191,102,0)" stroke="rgb(191,102,0)" stroke-width="1" opacity="0.5568627450980392" d="M 3.5 176 L 4 182.5 L 3 182.5 L 3.5 176 Z "></path><path fill="rgb(191,102,0)" stroke="rgb(191,102,0)" stroke-width="1" opacity="0.5568627450980392" d="M 508.5 176 L 509 182.5 L 508 182.5 L 508.5 176 Z "></path><path fill="rgb(191,102,0)" stroke="rgb(191,102,0)" stroke-width="1" opacity="0.5568627450980392" d="M 2.5 185 L 3 193.5 L 2 193.5 L 2.5 185 Z "></path><path fill="rgb(191,102,0)" stroke="rgb(191,102,0)" stroke-width="1" opacity="0.5568627450980392" d="M 509.5 185 L 510 193.5 L 509 193.5 L 509.5 185 Z "></path><path fill="rgb(191,102,0)" stroke="rgb(191,102,0)" stroke-width="1" opacity="0.5568627450980392" d="M 1.5 197 L 2 207.5 L 1 207.5 L 1.5 197 Z "></path><path fill="rgb(191,102,0)" stroke="rgb(191,102,0)" stroke-width="1" opacity="0.5568627450980392" d="M 510.5 197 L 511 207.5 L 510 207.5 L 510.5 197 Z "></path><path fill="rgb(191,102,0)" stroke="rgb(191,102,0)" stroke-width="1" opacity="0.5568627450980392" d="M 0.5 213 L 1 234.5 L 0 234.5 L 0.5 213 Z "></path><path fill="rgb(191,102,0)" stroke="rgb(191,102,0)" stroke-width="1" opacity="0.5568627450980392" d="M 511.5 213 L 512 234.5 L 511 234.5 L 511.5 213 Z "></path><path fill="rgb(191,102,0)" stroke="rgb(191,102,0)" stroke-width="1" opacity="0.5568627450980392" d="M 0.5 277 L 1 298.5 L 0 298.5 L 0.5 277 Z "></path><path fill="rgb(191,102,0)" stroke="rgb(191,102,0)" stroke-width="1" opacity="0.5568627450980392" d="M 511.5 277 L 512 298.5 L 511 298.5 L 511.5 277 Z "></path><path fill="rgb(191,102,0)" stroke="rgb(191,102,0)" stroke-width="1" opacity="0.5568627450980392" d="M 1.5 304 L 2 314.5 L 1 314.5 L 1.5 304 Z "></path><path fill="rgb(191,102,0)" stroke="rgb(191,102,0)" stroke-width="1" opacity="0.5568627450980392" d="M 510.5 304 L 511 314.5 L 510 314.5 L 510.5 304 Z "></path><path fill="rgb(191,102,0)" stroke="rgb(191,102,0)" stroke-width="1" opacity="0.5568627450980392" d="M 2.5 318 L 3 326.5 L 2 326.5 L 2.5 318 Z "></path><path fill="rgb(191,102,0)" stroke="rgb(191,102,0)" stroke-width="1" opacity="0.5568627450980392" d="M 509.5 318 L 510 326.5 L 509 326.5 L 509.5 318 Z "></path><path fill="rgb(191,102,0)" stroke="rgb(191,102,0)" stroke-width="1" opacity="0.5568627450980392" d="M 3.5 329 L 4 334.5 L 3 334.5 L 3.5 329 Z "></path><path fill="rgb(191,102,0)" stroke="rgb(191,102,0)" stroke-width="1" opacity="0.5568627450980392" d="M 508.5 329 L 509 334.5 L 508 334.5 L 508.5 329 Z "></path><path fill="rgb(191,102,0)" stroke="rgb(191,102,0)" stroke-width="1" opacity="0.5568627450980392" d="M 4.5 337 L 5 342.5 L 4 342.5 L 4.5 337 Z "></path><path fill="rgb(191,102,0)" stroke="rgb(191,102,0)" stroke-width="1" opacity="0.5568627450980392" d="M 507.5 337 L 508 342.5 L 507 342.5 L 507.5 337 Z "></path><path fill="rgb(191,102,0)" stroke="rgb(191,102,0)" stroke-width="1" opacity="0.5568627450980392" d="M 5.5 344 L 6 348.5 L 5 348.5 L 5.5 344 Z "></path><path fill="rgb(191,102,0)" stroke="rgb(191,102,0)" stroke-width="1" opacity="0.5568627450980392" d="M 506.5 344 L 507 348.5 L 506 348.5 L 506.5 344 Z "></path><path fill="rgb(191,102,0)" stroke="rgb(191,102,0)" stroke-width="1" opacity="0.5568627450980392" d="M 6.5 350 L 7 354.5 L 6 354.5 L 6.5 350 Z "></path><path fill="rgb(191,102,0)" stroke="rgb(191,102,0)" stroke-width="1" opacity="0.5568627450980392" d="M 505.5 350 L 506 354.5 L 505 354.5 L 505.5 350 Z "></path><path fill="rgb(191,102,0)" stroke="rgb(191,102,0)" stroke-width="1" opacity="0.5568627450980392" d="M 7.5 356 L 8 359.5 L 7 359.5 L 7.5 356 Z "></path><path fill="rgb(191,102,0)" stroke="rgb(191,102,0)" stroke-width="1" opacity="0.5568627450980392" d="M 504.5 356 L 505 359.5 L 504 359.5 L 504.5 356 Z "></path><path fill="rgb(191,102,0)" stroke="rgb(191,102,0)" stroke-width="1" opacity="0.5568627450980392" d="M 8.5 361 L 9 363.5 L 8 363.5 L 8.5 361 Z "></path><path fill="rgb(191,102,0)" stroke="rgb(191,102,0)" stroke-width="1" opacity="0.5568627450980392" d="M 503.5 361 L 504 363.5 L 503 363.5 L 503.5 361 Z "></path><path fill="rgb(191,102,0)" stroke="rgb(191,102,0)" stroke-width="1" opacity="0.5568627450980392" d="M 9.5 365 L 10 367.5 L 9 367.5 L 9.5 365 Z "></path><path fill="rgb(191,102,0)" stroke="rgb(191,102,0)" stroke-width="1" opacity="0.5568627450980392" d="M 502.5 365 L 503 367.5 L 502 367.5 L 502.5 365 Z "></path><path fill="rgb(191,102,0)" stroke="rgb(191,102,0)" stroke-width="1" opacity="0.5568627450980392" d="M 10.5 369 L 12 374.5 L 11 374.5 L 10.5 369 Z "></path><path fill="rgb(191,102,0)" stroke="rgb(191,102,0)" stroke-width="1" opacity="0.5568627450980392" d="M 501.5 369 L 502 371.5 L 500.5 375 L 500 372.5 L 501.5 369 Z "></path><path fill="rgb(191,102,0)" stroke="rgb(191,102,0)" stroke-width="1" opacity="0.5568627450980392" d="M 14.5 382 Q 21.9 404.6 38.5 418 L 52 424.5 L 50.5 425 Q 37.8 420.7 30 411.5 Q 19.1 399 14.5 382 Z "></path><path fill="rgb(191,102,0)" stroke="rgb(191,102,0)" stroke-width="1" opacity="0.5568627450980392" d="M 497.5 382 L 498 383.5 Q 491 403 477.5 416 L 463.5 424 L 463.5 423 Q 477.4 417.9 485 406.5 L 497.5 382 Z "></path><path fill="rgb(191,102,0)" stroke="rgb(191,102,0)" stroke-width="1" opacity="0.5568627450980392" d="M 53.5 425 L 56 425.5 L 53.5 426 L 53.5 425 Z "></path><path fill="rgb(191,102,0)" stroke="rgb(191,102,0)" stroke-width="1" opacity="0.5568627450980392" d="M 456.5 425 L 459 425.5 L 456.5 426 L 456.5 425 Z "></path><path fill="rgb(191,102,0)" stroke="rgb(191,102,0)" stroke-width="1" opacity="0.5568627450980392" d="M 57.5 426 L 61 426.5 L 57.5 427 L 57.5 426 Z "></path><path fill="rgb(191,102,0)" stroke="rgb(191,102,0)" stroke-width="1" opacity="0.5568627450980392" d="M 452.5 426 L 455 426.5 L 452.5 427 L 452.5 426 Z "></path><path fill="rgb(191,102,0)" stroke="rgb(191,102,0)" stroke-width="1" opacity="0.5568627450980392" d="M 62.5 427 L 67 427.5 L 62.5 428 L 62.5 427 Z "></path><path fill="rgb(191,102,0)" stroke="rgb(191,102,0)" stroke-width="1" opacity="0.5568627450980392" d="M 445.5 427 L 450 427.5 L 445.5 428 L 445.5 427 Z "></path><path fill="rgb(191,102,0)" stroke="rgb(191,102,0)" stroke-width="1" opacity="0.5568627450980392" d="M 69.5 428 L 77 428.5 L 69.5 429 L 69.5 428 Z "></path><path fill="rgb(191,102,0)" stroke="rgb(191,102,0)" stroke-width="1" opacity="0.5568627450980392" d="M 435.5 428 L 444 428.5 L 435.5 429 L 435.5 428 Z "></path><path fill="rgb(191,102,0)" stroke="rgb(191,102,0)" stroke-width="1" opacity="0.5568627450980392" d="M 80.5 429 L 95 429.5 L 80.5 430 L 80.5 429 Z "></path><path fill="rgb(191,102,0)" stroke="rgb(191,102,0)" stroke-width="1" opacity="0.5568627450980392" d="M 418.5 429 L 433 429.5 L 418.5 430 L 418.5 429 Z "></path><path fill="rgb(191,102,0)" stroke="rgb(191,102,0)" stroke-width="1" opacity="0.5568627450980392" d="M 102.5 430 L 132 430.5 L 102.5 431 L 102.5 430 Z "></path><path fill="rgb(191,102,0)" stroke="rgb(191,102,0)" stroke-width="1" opacity="0.5568627450980392" d="M 380.5 430 L 410 430.5 L 380.5 431 L 380.5 430 Z "></path><path fill="rgb(191,102,0)" stroke="rgb(191,102,0)" stroke-width="1" opacity="0.5568627450980392" d="M 145.5 431 L 201 431.5 L 145.5 432 L 145.5 431 Z "></path><path fill="rgb(191,102,0)" stroke="rgb(191,102,0)" stroke-width="1" opacity="0.5568627450980392" d="M 311.5 431 L 368 431.5 L 311.5 432 L 311.5 431 Z "></path><path fill="rgb(187,100,0)" stroke="rgb(187,100,0)" stroke-width="1" opacity="1" d="M 198.5 80 L 313.5 80 L 314.5 81 L 384.5 81 L 385.5 82 L 433.5 83 L 434.5 84 L 451.5 85 L 462.5 88 Q 473.8 92.2 481 100.5 Q 490.3 111.2 496 125.5 L 505 156.5 L 507 174.5 L 508 175.5 L 508 182.5 L 509 183.5 L 510 207.5 L 511 208.5 L 512 276.5 L 511 277.5 L 511 303.5 L 510 304.5 L 509 328.5 L 502 368.5 L 498 381.5 L 490 398.5 Q 483.8 410.3 473.5 418 L 462.5 424 L 451.5 427 L 435.5 428 L 434.5 429 L 418.5 429 L 417.5 430 L 311.5 431 L 310.5 432 L 201.5 432 L 200.5 431 L 95.5 430 L 94.5 429 L 67.5 428 L 52.5 425 L 41.5 420 L 27 406.5 L 14 381.5 L 8 360.5 L 5 343.5 L 4 329.5 L 3 328.5 L 3 318.5 L 2 317.5 L 2 304.5 L 1 303.5 L 0 235.5 L 1 234.5 L 1 208.5 L 2 207.5 L 3 183.5 L 4 182.5 L 4 175.5 L 5 174.5 L 7 156.5 L 11 139.5 L 19 118.5 Q 25.5 105.5 35.5 96 L 49.5 88 L 66.5 84 L 93.5 83 L 94.5 82 L 125.5 82 L 126.5 81 L 197.5 81 L 198.5 80 Z M 193 160 L 193 352 L 351 257 Q 353 258 352 255 L 193 160 Z "></path><path fill="rgb(0,0,0)" stroke="rgb(0,0,0)" stroke-width="1" opacity="0" d="M 0 0 L 512 0 L 512 212.5 L 511 212.5 L 511 197.5 L 510 196.5 L 509 176.5 L 502 140.5 Q 497.7 124.3 490 111.5 L 476.5 95 Q 468.2 87.8 455.5 85 L 444.5 84 L 443.5 83 L 410.5 82 L 409.5 81 L 373.5 81 L 372.5 80 L 139.5 80 L 138.5 81 L 80.5 82 L 79.5 83 L 61.5 84 Q 40 87.5 29 101.5 Q 16.1 117.6 10 140.5 L 3 176.5 L 0.5 213 L 0 0 Z "></path><path fill="rgb(0,0,0)" stroke="rgb(0,0,0)" stroke-width="1" opacity="0" d="M 192.5 161 L 350 255 Q 351.1 257.7 348.5 257 L 192.5 351 L 192.5 161 Z "></path><path fill="rgb(0,0,0)" stroke="rgb(0,0,0)" stroke-width="1" opacity="0" d="M 0.5 299 L 4 342.5 L 10 371.5 Q 17.2 398.8 34.5 416 Q 42.2 422.8 53.5 426 L 69.5 429 L 79.5 429 L 80.5 430 L 144.5 431 L 145.5 432 L 367.5 432 L 368.5 431 L 432.5 430 L 433.5 429 L 449.5 428 L 458.5 426 L 470.5 421 L 482 411.5 Q 495.6 395.1 502 371.5 L 508 342.5 L 511.5 299 L 512 512 L 0 512 L 0.5 299 Z "></path></svg>