<svg width="22" height="18" viewBox="0 0 22 18" fill="none" xmlns="http://www.w3.org/2000/svg">
<path d="M1.31525 6.63594L1.15228 7.10864L1.31525 6.63594ZM1.31525 11.3641L1.15227 10.8914L1.31525 11.3641ZM20.6847 11.3641L20.8477 10.8914L20.6847 11.3641ZM20.6847 6.63594L20.5218 6.16325L20.6847 6.63594ZM5 0.5C2.51472 0.5 0.5 2.51472 0.5 5H1.5C1.5 3.067 3.067 1.5 5 1.5V0.5ZM17 0.5H5V1.5H17V0.5ZM21.5 5C21.5 2.51472 19.4853 0.5 17 0.5V1.5C18.933 1.5 20.5 3.067 20.5 5H21.5ZM21.5 6.22305V5H20.5V6.22305H21.5ZM19.5 9C19.5 8.12457 20.0628 7.37928 20.8477 7.10864L20.5218 6.16325C19.3459 6.56868 18.5 7.68491 18.5 9H19.5ZM20.8477 10.8914C20.0628 10.6207 19.5 9.87543 19.5 9H18.5C18.5 10.3151 19.3459 11.4313 20.5218 11.8367L20.8477 10.8914ZM21.5 13V11.777H20.5V13H21.5ZM17 17.5C19.4853 17.5 21.5 15.4853 21.5 13H20.5C20.5 14.933 18.933 16.5 17 16.5V17.5ZM5 17.5H17V16.5H5V17.5ZM0.5 13C0.5 15.4853 2.51472 17.5 5 17.5V16.5C3.067 16.5 1.5 14.933 1.5 13H0.5ZM0.5 11.777V13H1.5V11.777H0.5ZM1.47823 11.8367C2.65412 11.4313 3.5 10.3151 3.5 9H2.5C2.5 9.87543 1.93724 10.6207 1.15227 10.8914L1.47823 11.8367ZM3.5 9C3.5 7.68491 2.65412 6.56868 1.47823 6.16325L1.15228 7.10864C1.93724 7.37928 2.5 8.12457 2.5 9H3.5ZM0.5 5V6.22305H1.5V5H0.5ZM1.47823 6.16325C1.47599 6.16248 1.47823 6.16217 1.48334 6.16866C1.48969 6.17675 1.5 6.19599 1.5 6.22305H0.5C0.5 6.66351 0.807989 6.98993 1.15228 7.10864L1.47823 6.16325ZM1.5 11.777C1.5 11.804 1.48969 11.8233 1.48334 11.8313C1.47823 11.8378 1.47599 11.8375 1.47823 11.8367L1.15227 10.8914C0.807988 11.0101 0.5 11.3365 0.5 11.777H1.5ZM20.5218 11.8367C20.524 11.8375 20.5218 11.8378 20.5167 11.8313C20.5103 11.8233 20.5 11.804 20.5 11.777H21.5C21.5 11.3365 21.192 11.0101 20.8477 10.8914L20.5218 11.8367ZM20.5 6.22305C20.5 6.19599 20.5103 6.17675 20.5167 6.16866C20.5218 6.16217 20.524 6.16248 20.5218 6.16325L20.8477 7.10864C21.192 6.98993 21.5 6.66351 21.5 6.22305H20.5Z" fill="#1F1E1D"/>
<circle cx="8.79834" cy="6.7986" r="0.791538" transform="rotate(45 8.79834 6.7986)" fill="#1F1E1D"/>
<circle cx="13.2017" cy="11.2015" r="0.791538" transform="rotate(45 13.2017 11.2015)" fill="#1F1E1D"/>
<path d="M8.76115 11.2387L13.2388 6.76111" stroke="#1F1E1D" stroke-linecap="round" stroke-linejoin="round"/>
</svg>
