<svg width="24" height="24" viewBox="0 0 24 24" fill="none" xmlns="http://www.w3.org/2000/svg">
<path d="M22.7066 17.6045L20.3759 15.2738C19.9541 14.8522 19.4258 14.553 18.8473 14.4082C18.2688 14.2633 17.6618 14.2781 17.0911 14.4511C16.5204 14.6241 16.0073 14.9488 15.6066 15.3905C15.2059 15.8322 14.9326 16.3743 14.8159 16.9592C10.9726 16.2405 7.23457 12.5178 7.00191 9.19049C7.65529 9.07029 8.25661 8.75406 8.72591 8.28382C9.34381 7.66584 9.69093 6.82772 9.69093 5.95382C9.69093 5.07992 9.34381 4.2418 8.72591 3.62382L6.39591 1.29315C5.77792 0.675252 4.93981 0.328125 4.06591 0.328125C3.192 0.328125 2.35389 0.675252 1.73591 1.29315C-5.25476 8.28382 15.7159 29.2545 22.7066 22.2638C23.3241 21.6458 23.671 20.8078 23.671 19.9342C23.671 19.0605 23.3241 18.2225 22.7066 17.6045Z" fill="#BA6400"/>
</svg>
