<svg width="16" height="18" viewBox="0 0 16 18" fill="none" xmlns="http://www.w3.org/2000/svg">
<path d="M10.2 8.19971H14.6001V12.9999C14.6001 15.209 12.8092 16.9999 10.6001 16.9999H5.7998C3.59066 16.9999 1.7998 15.209 1.7998 12.9999V8.19971H6.1999" stroke="white"/>
<path d="M11.8002 8.19979H13.9003C14.7287 8.19979 15.4003 7.52822 15.4003 6.69979V5.69971C15.4003 4.87128 14.7287 4.19971 13.9003 4.19971H2.5C1.67157 4.19971 1 4.87128 1 5.69971V6.69979C1 7.52822 1.67157 8.19979 2.5 8.19979H4.60008" stroke="white"/>
<path d="M8.2002 3.00004C8.2002 1.89545 9.09565 1 10.2002 1H10.6002C11.4839 1 12.2003 1.71636 12.2003 2.60003V2.60003C12.2003 3.48371 11.4839 4.20007 10.6002 4.20007H8.2002V3.00004Z" stroke="white"/>
<path d="M8.2002 3.00004C8.2002 1.89545 7.30475 1 6.20015 1H5.80014C4.91647 1 4.20011 1.71636 4.20011 2.60003V2.60003C4.20011 3.48371 4.91647 4.20007 5.80014 4.20007H8.2002V3.00004Z" stroke="white"/>
<path d="M10.2002 4.19971L10.2002 17L6.20011 17L6.20011 4.19971L10.2002 4.19971Z" stroke="white"/>
</svg>
